<?xml version="1.0" encoding="utf-8" standalone="no"?>
<!DOCTYPE svg PUBLIC "-//W3C//DTD SVG 1.1//EN"
  "http://www.w3.org/Graphics/SVG/1.1/DTD/svg11.dtd">
<svg xmlns:xlink="http://www.w3.org/1999/xlink" width="936pt" height="360pt" viewBox="0 0 936 360" xmlns="http://www.w3.org/2000/svg" version="1.1">
 <metadata>
  <rdf:RDF xmlns:dc="http://purl.org/dc/elements/1.1/" xmlns:cc="http://creativecommons.org/ns#" xmlns:rdf="http://www.w3.org/1999/02/22-rdf-syntax-ns#">
   <cc:Work>
    <dc:type rdf:resource="http://purl.org/dc/dcmitype/StillImage"/>
    <dc:date>2021-12-31T17:25:38.447118</dc:date>
    <dc:format>image/svg+xml</dc:format>
    <dc:creator>
     <cc:Agent>
      <dc:title>Matplotlib v3.5.0, https://matplotlib.org/</dc:title>
     </cc:Agent>
    </dc:creator>
   </cc:Work>
  </rdf:RDF>
 </metadata>
 <defs>
  <style type="text/css">*{stroke-linejoin: round; stroke-linecap: butt}</style>
 </defs>
 <g id="figure_1">
  <g id="patch_1">
   <path d="M 0 360 
L 936 360 
L 936 0 
L 0 0 
z
" style="fill: #ffffff"/>
  </g>
  <g id="axes_1">
   <g id="patch_2">
    <path d="M 52.786751 298.502825 
L 924.12 298.502825 
L 924.12 69.444684 
L 52.786751 69.444684 
z
" style="fill: #ffffff"/>
   </g>
   <g id="patch_3">
    <path d="M 92.392808 298.502825 
L 117.482617 298.502825 
L 117.482617 168.750636 
L 92.392808 168.750636 
z
" clip-path="url(#p9c9e400a23)" style="fill: #1b998b"/>
   </g>
   <g id="patch_4">
    <path d="M 235.763149 298.502825 
L 260.852959 298.502825 
L 260.852959 134.870898 
L 235.763149 134.870898 
z
" clip-path="url(#p9c9e400a23)" style="fill: #1b998b"/>
   </g>
   <g id="patch_5">
    <path d="M 379.13349 298.502825 
L 404.2233 298.502825 
L 404.2233 155.054571 
L 379.13349 155.054571 
z
" clip-path="url(#p9c9e400a23)" style="fill: #1b998b"/>
   </g>
   <g id="patch_6">
    <path d="M 522.503831 298.502825 
L 547.593641 298.502825 
L 547.593641 205.172303 
L 522.503831 205.172303 
z
" clip-path="url(#p9c9e400a23)" style="fill: #1b998b"/>
   </g>
   <g id="patch_7">
    <path d="M 665.874173 298.502825 
L 690.963982 298.502825 
L 690.963982 102.546668 
L 665.874173 102.546668 
z
" clip-path="url(#p9c9e400a23)" style="fill: #1b998b"/>
   </g>
   <g id="patch_8">
    <path d="M 809.244514 298.502825 
L 834.334324 298.502825 
L 834.334324 167.953912 
L 809.244514 167.953912 
z
" clip-path="url(#p9c9e400a23)" style="fill: #1b998b"/>
   </g>
   <g id="patch_9">
    <path d="M 117.482617 298.502825 
L 142.572427 298.502825 
L 142.572427 80.352214 
L 117.482617 80.352214 
z
" clip-path="url(#p9c9e400a23)" style="fill: #613dc1"/>
   </g>
   <g id="patch_10">
    <path d="M 260.852959 298.502825 
L 285.942768 298.502825 
L 285.942768 228.353177 
L 260.852959 228.353177 
z
" clip-path="url(#p9c9e400a23)" style="fill: #613dc1"/>
   </g>
   <g id="patch_11">
    <path d="M 404.2233 298.502825 
L 429.31311 298.502825 
L 429.31311 152.816156 
L 404.2233 152.816156 
z
" clip-path="url(#p9c9e400a23)" style="fill: #613dc1"/>
   </g>
   <g id="patch_12">
    <path d="M 547.593641 298.502825 
L 572.683451 298.502825 
L 572.683451 92.98598 
L 547.593641 92.98598 
z
" clip-path="url(#p9c9e400a23)" style="fill: #613dc1"/>
   </g>
   <g id="patch_13">
    <path d="M 690.963982 298.502825 
L 716.053792 298.502825 
L 716.053792 227.290878 
L 690.963982 227.290878 
z
" clip-path="url(#p9c9e400a23)" style="fill: #613dc1"/>
   </g>
   <g id="patch_14">
    <path d="M 834.334324 298.502825 
L 859.424133 298.502825 
L 859.424133 146.518243 
L 834.334324 146.518243 
z
" clip-path="url(#p9c9e400a23)" style="fill: #613dc1"/>
   </g>
   <g id="patch_15">
    <path d="M 142.572427 298.502825 
L 167.662237 298.502825 
L 167.662237 296.79556 
L 142.572427 296.79556 
z
" clip-path="url(#p9c9e400a23)" style="fill: #ed217c"/>
   </g>
   <g id="patch_16">
    <path d="M 285.942768 298.502825 
L 311.032578 298.502825 
L 311.032578 182.674336 
L 285.942768 182.674336 
z
" clip-path="url(#p9c9e400a23)" style="fill: #ed217c"/>
   </g>
   <g id="patch_17">
    <path d="M 429.31311 298.502825 
L 454.402919 298.502825 
L 454.402919 238.027682 
L 429.31311 238.027682 
z
" clip-path="url(#p9c9e400a23)" style="fill: #ed217c"/>
   </g>
   <g id="patch_18">
    <path d="M 572.683451 298.502825 
L 597.773261 298.502825 
L 597.773261 247.740127 
L 572.683451 247.740127 
z
" clip-path="url(#p9c9e400a23)" style="fill: #ed217c"/>
   </g>
   <g id="patch_19">
    <path d="M 716.053792 298.502825 
L 741.143602 298.502825 
L 741.143602 216.060864 
L 716.053792 216.060864 
z
" clip-path="url(#p9c9e400a23)" style="fill: #ed217c"/>
   </g>
   <g id="patch_20">
    <path d="M 859.424133 298.502825 
L 884.513943 298.502825 
L 884.513943 231.426255 
L 859.424133 231.426255 
z
" clip-path="url(#p9c9e400a23)" style="fill: #ed217c"/>
   </g>
   <g id="matplotlib.axis_1">
    <g id="xtick_1">
     <g id="line2d_1">
      <defs>
       <path id="mdbea3f5f03" d="M 0 0 
L 0 3.5 
" style="stroke: #000000; stroke-width: 0.8"/>
      </defs>
      <g>
       <use xlink:href="#mdbea3f5f03" x="130.027522" y="298.502825" style="stroke: #000000; stroke-width: 0.8"/>
      </g>
     </g>
     <g id="text_1">
      <!-- \textbf{Predicate Analysis} -->
      <g transform="translate(84.15058 316.613172)scale(0.11 -0.11)">
       <defs>
        <path id="CMSSBX10-50" d="M 1523 1728 
L 2496 1728 
C 3501 1728 4102 2150 4102 3052 
C 4102 3999 3475 4416 2490 4416 
L 890 4416 
C 659 4416 582 4345 582 4108 
L 582 308 
C 582 76 653 0 890 0 
L 1216 0 
C 1459 0 1523 83 1523 308 
L 1523 1728 
z
M 2291 3865 
C 3130 3865 3213 3490 3213 3052 
C 3213 2633 3142 2233 2285 2233 
L 1504 2233 
L 1504 3865 
L 2291 3865 
z
" transform="scale(0.015625)"/>
        <path id="CMSSBX10-72" d="M 1242 1456 
C 1242 2057 1747 2304 2150 2329 
C 2266 2335 2278 2335 2278 2502 
L 2278 2803 
C 2278 2931 2278 2976 2163 2976 
C 1984 2976 1517 2911 1216 2222 
L 1210 2222 
L 1210 2636 
C 1210 2841 1165 2944 902 2944 
L 698 2944 
C 467 2944 390 2873 390 2636 
L 390 305 
C 390 76 461 0 698 0 
L 934 0 
C 1178 0 1242 83 1242 305 
L 1242 1456 
z
" transform="scale(0.015625)"/>
        <path id="CMSSBX10-65" d="M 2758 1388 
C 2906 1388 3066 1395 3066 1683 
C 3066 2520 2682 3072 1728 3072 
C 704 3072 198 2494 198 1510 
C 198 448 806 -64 1811 -64 
C 2054 -64 2419 -32 2842 179 
C 2982 249 3027 268 3027 345 
C 3027 390 3008 578 3002 630 
C 2976 831 2970 837 2912 837 
C 2886 837 2874 837 2803 772 
C 2426 442 2042 396 1837 396 
C 1114 396 1037 973 1018 1388 
L 2758 1388 
z
M 1024 1728 
C 1043 2124 1171 2611 1728 2611 
C 2240 2611 2336 2234 2355 1728 
L 1024 1728 
z
" transform="scale(0.015625)"/>
        <path id="CMSSBX10-64" d="M 3194 4113 
C 3194 4313 3149 4416 2886 4416 
L 2650 4416 
C 2406 4416 2342 4332 2342 4113 
L 2342 2687 
C 2054 2963 1734 3008 1536 3008 
C 237 3008 237 1779 237 1465 
C 237 1171 237 -64 1504 -64 
C 1773 -64 2048 12 2323 307 
C 2323 70 2413 6 2630 6 
L 2886 6 
C 3130 6 3194 89 3194 313 
L 3194 4113 
z
M 2323 806 
C 2323 697 2323 640 2138 512 
C 1978 409 1830 396 1754 396 
C 1107 396 1107 985 1107 1465 
C 1107 1945 1107 2547 1824 2547 
C 2010 2547 2182 2483 2323 2348 
L 2323 806 
z
" transform="scale(0.015625)"/>
        <path id="CMSSBX10-69" d="M 653 4480 
C 448 4480 346 4441 346 4185 
L 346 3891 
C 346 3686 410 3603 646 3603 
L 979 3603 
C 1286 3603 1286 3737 1286 4038 
C 1286 4345 1286 4480 979 4480 
L 653 4480 
z
M 1242 2635 
C 1242 2841 1197 2944 934 2944 
L 698 2944 
C 467 2944 390 2873 390 2635 
L 390 308 
C 390 76 461 0 698 0 
L 934 0 
C 1178 0 1242 83 1242 308 
L 1242 2635 
z
" transform="scale(0.015625)"/>
        <path id="CMSSBX10-63" d="M 2925 326 
C 2925 396 2899 694 2886 778 
C 2886 797 2874 862 2810 862 
C 2784 862 2771 862 2707 797 
C 2598 700 2298 435 1773 435 
C 1107 435 1107 1089 1107 1504 
C 1107 2028 1139 2572 1792 2572 
C 2208 2572 2381 2469 2611 2274 
C 2688 2203 2701 2203 2726 2203 
C 2790 2203 2803 2261 2810 2287 
C 2822 2339 2886 2700 2886 2732 
C 2886 2790 2842 2815 2733 2867 
C 2426 3007 2234 3072 1786 3072 
C 832 3072 237 2623 237 1491 
C 237 416 787 -64 1754 -64 
C 1926 -64 2310 -58 2739 160 
C 2918 256 2925 262 2925 326 
z
" transform="scale(0.015625)"/>
        <path id="CMSSBX10-61" d="M 2970 2047 
C 2970 3065 1997 3072 1677 3072 
C 1376 3072 1056 3046 627 2867 
C 493 2809 461 2790 461 2719 
C 461 2675 499 2300 506 2248 
C 512 2209 544 2177 589 2177 
C 621 2177 640 2196 659 2215 
C 934 2507 1254 2649 1651 2649 
C 1997 2649 2099 2436 2099 2054 
L 2099 1827 
C 1875 1827 198 1814 198 862 
C 198 409 557 -64 1120 -64 
C 1338 -64 1818 0 2118 442 
L 2118 313 
C 2118 108 2163 6 2426 6 
L 2662 6 
C 2906 6 2970 89 2970 313 
L 2970 2047 
z
M 2099 998 
C 2099 396 1491 396 1472 396 
C 1203 396 1030 629 1030 875 
C 1030 1510 1920 1555 2099 1562 
L 2099 998 
z
" transform="scale(0.015625)"/>
        <path id="CMSSBX10-74" d="M 1395 2483 
L 1965 2483 
C 2042 2483 2272 2483 2272 2713 
C 2272 2944 2042 2944 1965 2944 
L 1395 2944 
L 1395 3470 
C 1395 3673 1350 3776 1088 3776 
L 890 3776 
C 659 3776 582 3705 582 3470 
L 582 2944 
L 435 2944 
C 365 2944 128 2944 128 2713 
C 128 2483 358 2483 435 2483 
L 563 2483 
L 563 858 
C 563 211 794 -64 1235 -64 
C 1293 -64 1574 -64 1907 38 
C 2016 70 2387 185 2387 307 
C 2387 326 2374 371 2336 505 
C 2304 634 2291 672 2234 672 
C 2202 672 2195 666 2157 627 
C 2086 576 1914 435 1645 435 
C 1491 435 1395 544 1395 968 
L 1395 2483 
z
" transform="scale(0.015625)"/>
        <path id="CMSSBX10-41" d="M 3034 4142 
C 2938 4416 2752 4416 2624 4416 
L 2061 4416 
C 1933 4416 1747 4416 1651 4142 
L 301 299 
C 269 216 269 204 269 172 
C 269 0 429 0 518 0 
L 749 0 
C 864 0 1062 0 1152 255 
L 1402 960 
L 3174 960 
L 3392 350 
C 3469 128 3514 0 3821 0 
L 4166 0 
C 4256 0 4416 0 4416 172 
C 4416 204 4416 216 4384 299 
L 3034 4142 
z
M 2054 2858 
C 2150 3137 2234 3379 2285 3608 
L 2291 3608 
C 2323 3455 2323 3442 2374 3296 
L 2982 1510 
L 1594 1510 
L 2054 2858 
z
" transform="scale(0.015625)"/>
        <path id="CMSSBX10-6e" d="M 3200 2085 
C 3200 2745 2918 3008 2266 3008 
C 1594 3008 1306 2521 1222 2348 
L 1216 2348 
L 1216 2668 
C 1216 2873 1171 2975 909 2975 
L 691 2975 
C 461 2975 384 2905 384 2668 
L 384 307 
C 384 76 454 0 691 0 
L 947 0 
C 1190 0 1254 83 1254 307 
L 1254 1725 
C 1254 2284 1626 2547 1958 2547 
C 2266 2547 2330 2399 2330 2072 
L 2330 307 
C 2330 102 2374 0 2637 0 
L 2893 0 
C 3136 0 3200 83 3200 307 
L 3200 2085 
z
" transform="scale(0.015625)"/>
        <path id="CMSSBX10-6c" d="M 1242 4109 
C 1242 4313 1197 4416 934 4416 
L 698 4416 
C 467 4416 390 4345 390 4109 
L 390 306 
C 390 76 461 0 698 0 
L 934 0 
C 1178 0 1242 83 1242 306 
L 1242 4109 
z
" transform="scale(0.015625)"/>
        <path id="CMSSBX10-79" d="M 2995 2641 
C 3027 2725 3027 2738 3027 2770 
C 3027 2944 2854 2944 2771 2944 
L 2630 2944 
C 2528 2944 2387 2944 2291 2796 
C 2272 2764 1754 1332 1722 897 
L 1715 897 
C 1683 1215 1421 1818 1146 2440 
C 966 2847 922 2944 602 2944 
L 435 2944 
C 346 2944 186 2944 186 2777 
C 186 2751 205 2705 218 2673 
L 1427 -23 
C 1376 -159 1357 -230 1338 -295 
C 1261 -509 1152 -800 806 -800 
C 595 -800 448 -710 378 -664 
C 346 -645 333 -638 314 -638 
C 282 -638 230 -658 230 -736 
C 230 -788 269 -1229 288 -1255 
C 346 -1332 691 -1344 794 -1344 
C 1587 -1344 1901 -587 1952 -431 
L 2995 2641 
z
" transform="scale(0.015625)"/>
        <path id="CMSSBX10-73" d="M 2534 914 
C 2534 1277 2342 1503 2227 1607 
C 1971 1840 1747 1879 1478 1931 
C 1126 1995 870 2047 870 2300 
C 870 2565 1082 2617 1331 2617 
C 1760 2617 1990 2455 2157 2313 
C 2221 2248 2234 2248 2259 2248 
C 2323 2248 2336 2306 2342 2332 
C 2355 2384 2419 2745 2419 2777 
C 2419 2879 2080 2969 2010 2995 
C 1754 3065 1549 3072 1382 3072 
C 1094 3072 237 3072 237 2151 
C 237 1833 378 1639 550 1484 
C 774 1277 1024 1231 1389 1160 
C 1574 1128 1901 1069 1901 784 
C 1901 480 1651 435 1402 435 
C 1120 435 762 519 461 882 
C 429 914 410 933 371 933 
C 307 933 294 875 288 836 
C 275 746 198 377 198 313 
C 198 198 672 51 678 44 
C 1030 -64 1293 -64 1402 -64 
C 1728 -64 2534 -39 2534 914 
z
" transform="scale(0.015625)"/>
       </defs>
       <use xlink:href="#CMSSBX10-50" transform="scale(0.996264)"/>
       <use xlink:href="#CMSSBX10-72" transform="translate(70.015609 0)scale(0.996264)"/>
       <use xlink:href="#CMSSBX10-65" transform="translate(107.09902 0)scale(0.996264)"/>
       <use xlink:href="#CMSSBX10-64" transform="translate(158.019472 0)scale(0.996264)"/>
       <use xlink:href="#CMSSBX10-69" transform="translate(213.92126 0)scale(0.996264)"/>
       <use xlink:href="#CMSSBX10-63" transform="translate(239.381479 0)scale(0.996264)"/>
       <use xlink:href="#CMSSBX10-61" transform="translate(288.08799 0)scale(0.996264)"/>
       <use xlink:href="#CMSSBX10-74" transform="translate(340.392185 0)scale(0.996264)"/>
       <use xlink:href="#CMSSBX10-65" transform="translate(380.658088 0)scale(0.996264)"/>
       <use xlink:href="#CMSSBX10-41" transform="translate(468.108424 0)scale(0.996264)"/>
       <use xlink:href="#CMSSBX10-6e" transform="translate(541.16819 0)scale(0.996264)"/>
       <use xlink:href="#CMSSBX10-61" transform="translate(597.069978 0)scale(0.996264)"/>
       <use xlink:href="#CMSSBX10-6c" transform="translate(649.374173 0)scale(0.996264)"/>
       <use xlink:href="#CMSSBX10-79" transform="translate(674.834392 0)scale(0.996264)"/>
       <use xlink:href="#CMSSBX10-73" transform="translate(724.647866 0)scale(0.996264)"/>
       <use xlink:href="#CMSSBX10-69" transform="translate(766.657231 0)scale(0.996264)"/>
       <use xlink:href="#CMSSBX10-73" transform="translate(792.11745 0)scale(0.996264)"/>
      </g>
     </g>
    </g>
    <g id="xtick_2">
     <g id="line2d_2">
      <g>
       <use xlink:href="#mdbea3f5f03" x="273.397863" y="298.502825" style="stroke: #000000; stroke-width: 0.8"/>
      </g>
     </g>
     <g id="text_2">
      <!-- \textbf{Predicate Analysis} -->
      <g transform="translate(227.520921 316.613172)scale(0.11 -0.11)">
       <use xlink:href="#CMSSBX10-50" transform="scale(0.996264)"/>
       <use xlink:href="#CMSSBX10-72" transform="translate(70.015609 0)scale(0.996264)"/>
       <use xlink:href="#CMSSBX10-65" transform="translate(107.09902 0)scale(0.996264)"/>
       <use xlink:href="#CMSSBX10-64" transform="translate(158.019472 0)scale(0.996264)"/>
       <use xlink:href="#CMSSBX10-69" transform="translate(213.92126 0)scale(0.996264)"/>
       <use xlink:href="#CMSSBX10-63" transform="translate(239.381479 0)scale(0.996264)"/>
       <use xlink:href="#CMSSBX10-61" transform="translate(288.08799 0)scale(0.996264)"/>
       <use xlink:href="#CMSSBX10-74" transform="translate(340.392185 0)scale(0.996264)"/>
       <use xlink:href="#CMSSBX10-65" transform="translate(380.658088 0)scale(0.996264)"/>
       <use xlink:href="#CMSSBX10-41" transform="translate(468.108424 0)scale(0.996264)"/>
       <use xlink:href="#CMSSBX10-6e" transform="translate(541.16819 0)scale(0.996264)"/>
       <use xlink:href="#CMSSBX10-61" transform="translate(597.069978 0)scale(0.996264)"/>
       <use xlink:href="#CMSSBX10-6c" transform="translate(649.374173 0)scale(0.996264)"/>
       <use xlink:href="#CMSSBX10-79" transform="translate(674.834392 0)scale(0.996264)"/>
       <use xlink:href="#CMSSBX10-73" transform="translate(724.647866 0)scale(0.996264)"/>
       <use xlink:href="#CMSSBX10-69" transform="translate(766.657231 0)scale(0.996264)"/>
       <use xlink:href="#CMSSBX10-73" transform="translate(792.11745 0)scale(0.996264)"/>
      </g>
      <!-- \textbf{(backwards)} -->
      <g transform="translate(243.12679 332.30571)scale(0.11 -0.11)">
       <defs>
        <path id="CMSSBX10-28" d="M 2054 4800 
C 1939 4800 1926 4800 1811 4697 
C 1043 4051 550 2957 550 1600 
C 550 825 710 -512 1779 -1479 
C 1914 -1600 1926 -1600 2054 -1600 
L 2170 -1600 
C 2272 -1600 2342 -1600 2342 -1517 
C 2342 -1498 2342 -1485 2266 -1402 
C 1862 -909 1421 -122 1421 1600 
C 1421 3481 1952 4224 2304 4646 
C 2330 4678 2342 4691 2342 4716 
C 2342 4800 2272 4800 2170 4800 
L 2054 4800 
z
" transform="scale(0.015625)"/>
        <path id="CMSSBX10-62" d="M 1242 4113 
C 1242 4313 1197 4416 934 4416 
L 698 4416 
C 467 4416 390 4345 390 4113 
L 390 313 
C 390 83 461 6 698 6 
L 954 6 
C 1062 6 1254 6 1261 256 
C 1555 -64 1882 -64 1984 -64 
C 3347 -64 3347 1164 3347 1484 
C 3347 1791 3347 3008 2144 3008 
C 1619 3008 1299 2713 1242 2649 
L 1242 4113 
z
M 1261 2323 
C 1344 2399 1536 2547 1830 2547 
C 2477 2547 2477 1958 2477 1478 
C 2477 1004 2477 396 1760 396 
C 1491 396 1331 556 1261 646 
L 1261 2323 
z
" transform="scale(0.015625)"/>
        <path id="CMSSBX10-6b" d="M 2003 1730 
L 2989 2640 
C 3066 2710 3085 2729 3085 2780 
C 3085 2913 2957 2913 2867 2913 
L 2496 2913 
C 2381 2913 2259 2913 2112 2780 
L 1190 1928 
L 1190 4109 
C 1190 4313 1146 4416 883 4416 
L 749 4416 
C 518 4416 442 4345 442 4109 
L 442 306 
C 442 76 512 0 749 0 
L 864 0 
C 1107 0 1171 83 1171 306 
L 1171 967 
L 1472 1241 
L 2304 159 
C 2413 19 2458 0 2643 0 
L 2950 0 
C 3040 0 3181 0 3181 140 
C 3181 153 3181 198 3117 280 
L 2003 1730 
z
" transform="scale(0.015625)"/>
        <path id="CMSSBX10-77" d="M 4602 2764 
C 4582 2944 4467 2944 4269 2944 
C 3968 2944 3891 2924 3802 2590 
C 3661 2095 3379 1092 3283 726 
L 2739 2655 
C 2701 2796 2656 2944 2362 2944 
C 2266 2944 2118 2944 2029 2796 
C 1971 2700 1690 1587 1466 835 
L 954 2655 
C 890 2873 819 2944 557 2944 
L 429 2944 
C 307 2944 173 2944 154 2764 
L 832 295 
C 915 0 1082 0 1242 0 
L 1421 0 
C 1722 0 1773 96 1843 353 
C 1990 886 2221 1697 2246 2031 
L 2253 2037 
C 2291 1671 2573 655 2656 353 
C 2726 121 2758 0 3078 0 
L 3514 0 
C 3789 0 3853 76 3917 295 
L 4602 2764 
z
" transform="scale(0.015625)"/>
        <path id="CMSSBX10-29" d="M 563 4800 
C 461 4800 390 4800 390 4716 
C 390 4697 390 4684 467 4601 
C 864 4109 1312 3321 1312 1600 
C 1312 -276 781 -1018 429 -1447 
C 390 -1492 390 -1504 390 -1517 
C 390 -1600 461 -1600 563 -1600 
L 678 -1600 
C 794 -1600 806 -1600 922 -1498 
C 1690 -852 2182 243 2182 1600 
C 2182 2374 2022 3712 954 4678 
C 819 4800 806 4800 678 4800 
L 563 4800 
z
" transform="scale(0.015625)"/>
       </defs>
       <use xlink:href="#CMSSBX10-28" transform="scale(0.996264)"/>
       <use xlink:href="#CMSSBX10-62" transform="translate(42.618197 0)scale(0.996264)"/>
       <use xlink:href="#CMSSBX10-61" transform="translate(98.519985 0)scale(0.996264)"/>
       <use xlink:href="#CMSSBX10-63" transform="translate(150.82418 0)scale(0.996264)"/>
       <use xlink:href="#CMSSBX10-6b" transform="translate(199.530691 0)scale(0.996264)"/>
       <use xlink:href="#CMSSBX10-77" transform="translate(252.388322 0)scale(0.996264)"/>
       <use xlink:href="#CMSSBX10-61" transform="translate(323.510894 0)scale(0.996264)"/>
       <use xlink:href="#CMSSBX10-72" transform="translate(372.770932 0)scale(0.996264)"/>
       <use xlink:href="#CMSSBX10-64" transform="translate(409.854343 0)scale(0.996264)"/>
       <use xlink:href="#CMSSBX10-73" transform="translate(465.756131 0)scale(0.996264)"/>
       <use xlink:href="#CMSSBX10-29" transform="translate(507.765496 0)scale(0.996264)"/>
      </g>
     </g>
    </g>
    <g id="xtick_3">
     <g id="line2d_3">
      <g>
       <use xlink:href="#mdbea3f5f03" x="416.768205" y="298.502825" style="stroke: #000000; stroke-width: 0.8"/>
      </g>
     </g>
     <g id="text_3">
      <!-- \textbf{Concurrent Analysis} -->
      <g transform="translate(366.766426 316.613172)scale(0.11 -0.11)">
       <defs>
        <path id="CMSSBX10-43" d="M 4096 917 
C 4096 969 4051 995 4026 995 
C 3872 995 3686 576 2784 576 
C 1658 576 1338 1272 1338 2239 
C 1338 3200 1683 3897 2733 3897 
C 3302 3897 3603 3671 3776 3529 
C 3814 3497 3834 3471 3878 3471 
C 3904 3471 3936 3503 3942 3529 
L 4070 4243 
C 4077 4268 4070 4294 4019 4313 
C 3642 4454 3251 4544 2752 4544 
C 1190 4544 390 3781 390 2246 
C 390 666 1203 -64 2758 -64 
C 3302 -64 3642 12 4109 300 
C 4160 332 4147 377 4147 377 
L 4096 917 
z
" transform="scale(0.015625)"/>
        <path id="CMSSBX10-6f" d="M 3315 1458 
C 3315 2520 2803 3072 1760 3072 
C 691 3072 198 2500 198 1458 
C 198 403 749 -64 1754 -64 
C 2758 -64 3315 396 3315 1458 
z
M 1760 435 
C 1069 435 1069 1018 1069 1536 
C 1069 2034 1069 2611 1754 2611 
C 2445 2611 2445 2041 2445 1536 
C 2445 1024 2445 435 1760 435 
z
" transform="scale(0.015625)"/>
        <path id="CMSSBX10-75" d="M 3200 2636 
C 3200 2841 3155 2944 2893 2944 
L 2637 2944 
C 2394 2944 2330 2860 2330 2636 
L 2330 1115 
C 2330 692 2106 326 1651 326 
C 1293 326 1254 416 1254 756 
L 1254 2636 
C 1254 2841 1210 2944 947 2944 
L 691 2944 
C 461 2944 384 2873 384 2636 
L 384 814 
C 384 128 755 -64 1421 -64 
C 1594 -64 2048 -64 2349 480 
L 2349 313 
C 2349 108 2394 6 2656 6 
L 2893 6 
C 3136 6 3200 89 3200 313 
L 3200 2636 
z
" transform="scale(0.015625)"/>
       </defs>
       <use xlink:href="#CMSSBX10-43" transform="scale(0.996264)"/>
       <use xlink:href="#CMSSBX10-6f" transform="translate(70.015609 0)scale(0.996264)"/>
       <use xlink:href="#CMSSBX10-6e" transform="translate(124.810434 0)scale(0.996264)"/>
       <use xlink:href="#CMSSBX10-63" transform="translate(180.712222 0)scale(0.996264)"/>
       <use xlink:href="#CMSSBX10-75" transform="translate(229.418732 0)scale(0.996264)"/>
       <use xlink:href="#CMSSBX10-72" transform="translate(285.32052 0)scale(0.996264)"/>
       <use xlink:href="#CMSSBX10-72" transform="translate(322.403931 0)scale(0.996264)"/>
       <use xlink:href="#CMSSBX10-65" transform="translate(359.487341 0)scale(0.996264)"/>
       <use xlink:href="#CMSSBX10-6e" transform="translate(410.407794 0)scale(0.996264)"/>
       <use xlink:href="#CMSSBX10-74" transform="translate(466.309582 0)scale(0.996264)"/>
       <use xlink:href="#CMSSBX10-41" transform="translate(543.105368 0)scale(0.996264)"/>
       <use xlink:href="#CMSSBX10-6e" transform="translate(616.165135 0)scale(0.996264)"/>
       <use xlink:href="#CMSSBX10-61" transform="translate(672.066923 0)scale(0.996264)"/>
       <use xlink:href="#CMSSBX10-6c" transform="translate(724.371117 0)scale(0.996264)"/>
       <use xlink:href="#CMSSBX10-79" transform="translate(749.831336 0)scale(0.996264)"/>
       <use xlink:href="#CMSSBX10-73" transform="translate(799.64481 0)scale(0.996264)"/>
       <use xlink:href="#CMSSBX10-69" transform="translate(841.654176 0)scale(0.996264)"/>
       <use xlink:href="#CMSSBX10-73" transform="translate(867.114395 0)scale(0.996264)"/>
      </g>
      <!-- Spawn on All Blocks -->
      <g transform="translate(369.446934 331.301139)scale(0.11 -0.11)">
       <defs>
        <path id="CMSS17-53" d="M 2797 4230 
C 2515 4396 2208 4544 1690 4544 
C 864 4544 333 3934 333 3309 
C 333 3064 403 2787 653 2504 
C 902 2220 1184 2143 1542 2053 
C 1690 2014 1939 1943 1984 1924 
C 2342 1782 2515 1454 2515 1144 
C 2515 738 2202 307 1645 307 
C 1453 307 890 339 358 829 
L 269 320 
C 794 -64 1363 -128 1651 -128 
C 2438 -128 3002 494 3002 1202 
C 3002 1460 2925 1789 2656 2092 
C 2394 2381 2163 2446 1638 2588 
C 1338 2665 1146 2717 986 2916 
C 877 3058 819 3193 819 3367 
C 819 3728 1126 4121 1690 4121 
C 1971 4121 2336 4063 2707 3715 
L 2797 4230 
z
" transform="scale(0.015625)"/>
        <path id="CMSS17-70" d="M 966 275 
C 1178 70 1466 -64 1773 -64 
C 2368 -64 2880 553 2880 1382 
C 2880 2147 2496 2816 1946 2816 
C 1626 2816 1242 2700 954 2470 
L 954 2764 
L 480 2764 
L 480 -1280 
L 966 -1280 
L 966 275 
z
M 966 2088 
C 1018 2166 1235 2412 1587 2412 
C 2035 2412 2394 1946 2394 1382 
C 2394 741 1958 326 1530 326 
C 1402 326 1267 358 1139 468 
C 966 624 966 721 966 812 
L 966 2088 
z
" transform="scale(0.015625)"/>
        <path id="CMSS17-61" d="M 2406 1789 
C 2406 2399 1978 2816 1402 2816 
C 1120 2816 813 2764 461 2559 
L 499 2133 
C 659 2250 934 2438 1395 2438 
C 1722 2438 1920 2185 1920 1782 
L 1920 1536 
C 896 1504 256 1209 256 711 
C 256 452 416 -64 947 -64 
C 1043 -64 1562 -52 1933 224 
L 1933 -13 
L 2406 -13 
L 2406 1789 
z
M 1920 824 
C 1920 711 1920 559 1728 446 
C 1562 339 1350 326 1261 326 
C 941 326 723 503 723 723 
C 723 1165 1722 1209 1920 1216 
L 1920 824 
z
" transform="scale(0.015625)"/>
        <path id="CMSS17-77" d="M 4013 2752 
L 3526 2752 
L 3187 1600 
C 3117 1356 2918 684 2893 371 
L 2886 371 
C 2874 563 2765 1024 2586 1632 
L 2259 2752 
L 1818 2752 
L 1498 1657 
C 1338 1100 1216 627 1203 371 
L 1197 371 
C 1171 748 909 1632 870 1772 
L 582 2752 
L 83 2752 
L 915 0 
L 1402 0 
C 1734 1100 1990 1952 2010 2380 
C 2022 2169 2131 1715 2195 1491 
L 2618 0 
L 3181 0 
L 4013 2752 
z
" transform="scale(0.015625)"/>
        <path id="CMSS17-6e" d="M 2618 1878 
C 2618 2283 2522 2816 1798 2816 
C 1389 2816 1120 2604 941 2386 
L 941 2783 
L 474 2783 
L 474 0 
L 960 0 
L 960 1556 
C 960 1962 1114 2425 1549 2425 
C 2112 2425 2131 2045 2131 1826 
L 2131 0 
L 2618 0 
L 2618 1878 
z
" transform="scale(0.015625)"/>
        <path id="CMSS17-6f" d="M 2829 1356 
C 2829 2175 2221 2816 1504 2816 
C 768 2816 173 2156 173 1356 
C 173 544 787 -64 1498 -64 
C 2227 -64 2829 563 2829 1356 
z
M 1504 339 
C 1050 339 659 710 659 1407 
C 659 2150 1114 2425 1498 2425 
C 1914 2425 2342 2124 2342 1407 
C 2342 684 1926 339 1504 339 
z
" transform="scale(0.015625)"/>
        <path id="CMSS17-41" d="M 2272 4416 
L 1722 4416 
L 166 0 
L 653 0 
L 1101 1280 
L 2816 1280 
L 3270 0 
L 3827 0 
L 2272 4416 
z
M 2694 1638 
L 1222 1638 
C 1530 2530 1914 3638 1958 3924 
L 1965 3924 
C 2010 3663 2138 3281 2246 2956 
L 2694 1638 
z
" transform="scale(0.015625)"/>
        <path id="CMSS17-6c" d="M 947 4416 
L 474 4416 
L 474 0 
L 947 0 
L 947 4416 
z
" transform="scale(0.015625)"/>
        <path id="CMSS17-42" d="M 570 4416 
L 570 0 
L 2163 0 
C 3034 0 3667 575 3667 1200 
C 3667 1684 3251 2175 2502 2316 
C 3334 2559 3501 3039 3501 3311 
C 3501 3880 2874 4416 1997 4416 
L 570 4416 
z
M 1088 2496 
L 1088 4057 
L 1824 4057 
C 2483 4057 3002 3722 3002 3305 
C 3002 2925 2592 2496 1766 2496 
L 1088 2496 
z
M 1088 358 
L 1088 2105 
L 1939 2105 
C 2630 2105 3162 1678 3162 1206 
C 3162 772 2694 358 1984 358 
L 1088 358 
z
" transform="scale(0.015625)"/>
        <path id="CMSS17-63" d="M 2464 2540 
C 2464 2585 2170 2713 2093 2739 
C 1882 2816 1613 2816 1542 2816 
C 710 2816 211 2092 211 1363 
C 211 595 768 -64 1517 -64 
C 1946 -64 2253 76 2502 243 
L 2464 665 
C 2189 454 1869 339 1523 339 
C 1024 339 698 774 698 1369 
C 698 1830 909 2412 1549 2412 
C 1901 2412 2099 2342 2394 2143 
L 2464 2540 
z
" transform="scale(0.015625)"/>
        <path id="CMSS17-6b" d="M 1696 1686 
L 2688 2735 
L 2074 2735 
L 954 1552 
L 954 4416 
L 480 4416 
L 480 0 
L 947 0 
L 947 891 
L 1376 1342 
L 2278 0 
L 2822 0 
L 1696 1686 
z
" transform="scale(0.015625)"/>
        <path id="CMSS17-73" d="M 2061 2623 
C 1683 2803 1389 2816 1197 2816 
C 742 2816 198 2655 198 2009 
C 198 1363 902 1222 1094 1183 
C 1389 1126 1715 1062 1715 742 
C 1715 339 1254 339 1171 339 
C 915 339 563 409 243 639 
L 166 211 
C 531 0 883 -64 1178 -64 
C 1965 -64 2163 416 2163 780 
C 2163 1094 1984 1305 1862 1401 
C 1651 1567 1574 1587 1050 1695 
C 960 1708 646 1779 646 2067 
C 646 2431 1050 2431 1139 2431 
C 1555 2431 1811 2303 1984 2207 
L 2061 2623 
z
" transform="scale(0.015625)"/>
       </defs>
       <use xlink:href="#CMSS17-53" transform="scale(0.996264)"/>
       <use xlink:href="#CMSS17-70" transform="translate(52.048516 0)scale(0.996264)"/>
       <use xlink:href="#CMSS17-61" transform="translate(100.253459 0)scale(0.996264)"/>
       <use xlink:href="#CMSS17-77" transform="translate(142.572926 0)scale(0.996264)"/>
       <use xlink:href="#CMSS17-6e" transform="translate(206.392471 0)scale(0.996264)"/>
       <use xlink:href="#CMSS17-6f" transform="translate(285.826527 0)scale(0.996264)"/>
       <use xlink:href="#CMSS17-6e" transform="translate(332.670151 0)scale(0.996264)"/>
       <use xlink:href="#CMSS17-41" transform="translate(412.104206 0)scale(0.996264)"/>
       <use xlink:href="#CMSS17-6c" transform="translate(474.322061 0)scale(0.996264)"/>
       <use xlink:href="#CMSS17-6c" transform="translate(496.502784 0)scale(0.996264)"/>
       <use xlink:href="#CMSS17-42" transform="translate(549.91262 0)scale(0.996264)"/>
       <use xlink:href="#CMSS17-6c" transform="translate(612.25066 0)scale(0.996264)"/>
       <use xlink:href="#CMSS17-6f" transform="translate(634.431383 0)scale(0.996264)"/>
       <use xlink:href="#CMSS17-63" transform="translate(683.877446 0)scale(0.996264)"/>
       <use xlink:href="#CMSS17-6b" transform="translate(725.516268 0)scale(0.996264)"/>
       <use xlink:href="#CMSS17-73" transform="translate(771.118757 0)scale(0.996264)"/>
      </g>
      <!-- With Redundancy Checks -->
      <g transform="translate(358.115084 345.989105)scale(0.11 -0.11)">
       <defs>
        <path id="CMSS17-57" d="M 5581 4416 
L 5094 4416 
L 4557 2436 
C 4474 2118 4397 1800 4320 1482 
C 4205 1012 4122 681 4109 516 
L 4102 516 
C 4090 687 4006 1050 3904 1457 
C 3827 1794 3744 2131 3654 2462 
L 3123 4416 
L 2586 4416 
L 2080 2564 
L 1824 1552 
C 1632 751 1626 636 1613 509 
L 1606 509 
C 1606 547 1581 757 1402 1501 
C 1312 1870 1222 2246 1126 2602 
L 634 4416 
L 83 4416 
L 1299 0 
L 1830 0 
L 2336 1838 
L 2592 2850 
C 2765 3562 2803 3740 2816 3899 
L 2822 3899 
C 2822 3874 2880 3473 3130 2544 
L 3808 0 
L 4365 0 
L 5581 4416 
z
" transform="scale(0.015625)"/>
        <path id="CMSS17-69" d="M 979 4224 
L 442 4224 
L 442 3686 
L 979 3686 
L 979 4224 
z
M 947 2752 
L 474 2752 
L 474 0 
L 947 0 
L 947 2752 
z
" transform="scale(0.015625)"/>
        <path id="CMSS17-74" d="M 1069 2380 
L 1901 2380 
L 1901 2752 
L 1069 2752 
L 1069 3520 
L 614 3520 
L 614 2752 
L 109 2752 
L 109 2380 
L 602 2380 
L 602 751 
C 602 384 685 -64 1107 -64 
C 1427 -64 1722 25 2003 172 
L 1901 551 
C 1747 416 1562 339 1363 339 
C 1082 339 1069 699 1069 860 
L 1069 2380 
z
" transform="scale(0.015625)"/>
        <path id="CMSS17-68" d="M 2618 1878 
C 2618 2283 2522 2816 1798 2816 
C 1395 2816 1133 2617 947 2399 
L 947 4416 
L 474 4416 
L 474 0 
L 960 0 
L 960 1556 
C 960 1962 1114 2425 1549 2425 
C 2112 2425 2131 2045 2131 1826 
L 2131 0 
L 2618 0 
L 2618 1878 
z
" transform="scale(0.015625)"/>
        <path id="CMSS17-52" d="M 2522 2099 
L 2534 2105 
C 3533 2450 3539 3125 3539 3244 
C 3539 3838 2925 4416 2003 4416 
L 570 4416 
L 570 0 
L 1094 0 
L 1094 2041 
L 2035 2041 
L 3168 0 
L 3706 0 
L 2522 2099 
z
M 1094 2432 
L 1094 4057 
L 1933 4057 
C 2746 4057 3034 3607 3034 3244 
C 3034 2907 2778 2432 1933 2432 
L 1094 2432 
z
" transform="scale(0.015625)"/>
        <path id="CMSS17-65" d="M 2502 1375 
C 2502 1587 2490 2001 2285 2347 
C 2061 2713 1696 2816 1421 2816 
C 755 2816 192 2184 192 1363 
C 192 579 774 -64 1510 -64 
C 1798 -64 2150 19 2470 249 
C 2470 275 2458 414 2451 421 
C 2451 433 2432 629 2432 655 
C 2125 408 1773 326 1517 326 
C 1107 326 666 667 646 1375 
L 2502 1375 
z
M 698 1728 
C 781 2086 1062 2425 1421 2425 
C 1517 2425 1965 2412 2080 1728 
L 698 1728 
z
" transform="scale(0.015625)"/>
        <path id="CMSS17-64" d="M 2611 4416 
L 2138 4416 
L 2138 2495 
C 1939 2662 1613 2816 1254 2816 
C 672 2816 211 2179 211 1375 
C 211 572 666 -64 1235 -64 
C 1677 -64 1971 172 2125 307 
L 2125 -13 
L 2611 -13 
L 2611 4416 
z
M 2125 851 
C 2125 760 2125 663 1926 488 
C 1798 378 1645 326 1498 326 
C 1152 326 698 585 698 1369 
C 698 2185 1210 2425 1562 2425 
C 1798 2425 1990 2308 2125 2114 
L 2125 851 
z
" transform="scale(0.015625)"/>
        <path id="CMSS17-75" d="M 2618 2752 
L 2131 2752 
L 2131 976 
C 2131 500 1786 307 1421 307 
C 998 307 960 448 960 712 
L 960 2752 
L 474 2752 
L 474 680 
C 474 179 646 -64 1088 -64 
C 1306 -64 1798 -13 2144 307 
L 2144 -13 
L 2618 -13 
L 2618 2752 
z
" transform="scale(0.015625)"/>
        <path id="CMSS17-79" d="M 2675 2752 
L 2176 2752 
C 1632 1293 1446 701 1434 383 
L 1427 383 
C 1408 695 1126 1459 902 2006 
L 602 2752 
L 83 2752 
L 1216 14 
C 1146 -177 1043 -464 1011 -527 
C 870 -884 774 -884 672 -884 
C 646 -884 442 -877 211 -807 
L 250 -1229 
C 410 -1261 570 -1280 685 -1280 
C 845 -1280 1165 -1280 1459 -495 
L 2675 2752 
z
" transform="scale(0.015625)"/>
        <path id="CMSS17-43" d="M 3501 705 
C 3072 416 2874 332 2355 332 
C 1459 332 934 1304 934 2191 
C 934 3137 1472 4070 2381 4070 
C 2790 4070 3059 3954 3386 3748 
L 3475 4255 
C 3168 4409 2778 4480 2387 4480 
C 1158 4480 397 3343 397 2191 
C 397 924 1299 -77 2323 -77 
C 2874 -77 3066 -32 3539 268 
L 3501 705 
z
" transform="scale(0.015625)"/>
       </defs>
       <use xlink:href="#CMSS17-57" transform="scale(0.996264)"/>
       <use xlink:href="#CMSS17-69" transform="translate(88.242166 0)scale(0.996264)"/>
       <use xlink:href="#CMSS17-74" transform="translate(110.422889 0)scale(0.996264)"/>
       <use xlink:href="#CMSS17-68" transform="translate(144.254456 0)scale(0.996264)"/>
       <use xlink:href="#CMSS17-52" transform="translate(223.688512 0)scale(0.996264)"/>
       <use xlink:href="#CMSS17-65" transform="translate(284.104667 0)scale(0.996264)"/>
       <use xlink:href="#CMSS17-64" transform="translate(325.743489 0)scale(0.996264)"/>
       <use xlink:href="#CMSS17-75" transform="translate(373.948432 0)scale(0.996264)"/>
       <use xlink:href="#CMSS17-6e" transform="translate(422.153375 0)scale(0.996264)"/>
       <use xlink:href="#CMSS17-64" transform="translate(470.358318 0)scale(0.996264)"/>
       <use xlink:href="#CMSS17-61" transform="translate(518.563261 0)scale(0.996264)"/>
       <use xlink:href="#CMSS17-6e" transform="translate(563.485182 0)scale(0.996264)"/>
       <use xlink:href="#CMSS17-63" transform="translate(611.690125 0)scale(0.996264)"/>
       <use xlink:href="#CMSS17-79" transform="translate(653.328947 0)scale(0.996264)"/>
       <use xlink:href="#CMSS17-43" transform="translate(727.558202 0)scale(0.996264)"/>
       <use xlink:href="#CMSS17-68" transform="translate(787.413973 0)scale(0.996264)"/>
       <use xlink:href="#CMSS17-65" transform="translate(835.618916 0)scale(0.996264)"/>
       <use xlink:href="#CMSS17-63" transform="translate(877.257738 0)scale(0.996264)"/>
       <use xlink:href="#CMSS17-6b" transform="translate(918.89656 0)scale(0.996264)"/>
       <use xlink:href="#CMSS17-73" transform="translate(964.49905 0)scale(0.996264)"/>
      </g>
     </g>
    </g>
    <g id="xtick_4">
     <g id="line2d_4">
      <g>
       <use xlink:href="#mdbea3f5f03" x="560.138546" y="298.502825" style="stroke: #000000; stroke-width: 0.8"/>
      </g>
     </g>
     <g id="text_4">
      <!-- \textbf{Concurrent Analysis} -->
      <g transform="translate(510.136767 316.613172)scale(0.11 -0.11)">
       <use xlink:href="#CMSSBX10-43" transform="scale(0.996264)"/>
       <use xlink:href="#CMSSBX10-6f" transform="translate(70.015609 0)scale(0.996264)"/>
       <use xlink:href="#CMSSBX10-6e" transform="translate(124.810434 0)scale(0.996264)"/>
       <use xlink:href="#CMSSBX10-63" transform="translate(180.712222 0)scale(0.996264)"/>
       <use xlink:href="#CMSSBX10-75" transform="translate(229.418732 0)scale(0.996264)"/>
       <use xlink:href="#CMSSBX10-72" transform="translate(285.32052 0)scale(0.996264)"/>
       <use xlink:href="#CMSSBX10-72" transform="translate(322.403931 0)scale(0.996264)"/>
       <use xlink:href="#CMSSBX10-65" transform="translate(359.487341 0)scale(0.996264)"/>
       <use xlink:href="#CMSSBX10-6e" transform="translate(410.407794 0)scale(0.996264)"/>
       <use xlink:href="#CMSSBX10-74" transform="translate(466.309582 0)scale(0.996264)"/>
       <use xlink:href="#CMSSBX10-41" transform="translate(543.105368 0)scale(0.996264)"/>
       <use xlink:href="#CMSSBX10-6e" transform="translate(616.165135 0)scale(0.996264)"/>
       <use xlink:href="#CMSSBX10-61" transform="translate(672.066923 0)scale(0.996264)"/>
       <use xlink:href="#CMSSBX10-6c" transform="translate(724.371117 0)scale(0.996264)"/>
       <use xlink:href="#CMSSBX10-79" transform="translate(749.831336 0)scale(0.996264)"/>
       <use xlink:href="#CMSSBX10-73" transform="translate(799.64481 0)scale(0.996264)"/>
       <use xlink:href="#CMSSBX10-69" transform="translate(841.654176 0)scale(0.996264)"/>
       <use xlink:href="#CMSSBX10-73" transform="translate(867.114395 0)scale(0.996264)"/>
      </g>
      <!-- Spawn on All Blocks -->
      <g transform="translate(512.817275 331.301139)scale(0.11 -0.11)">
       <use xlink:href="#CMSS17-53" transform="scale(0.996264)"/>
       <use xlink:href="#CMSS17-70" transform="translate(52.048516 0)scale(0.996264)"/>
       <use xlink:href="#CMSS17-61" transform="translate(100.253459 0)scale(0.996264)"/>
       <use xlink:href="#CMSS17-77" transform="translate(142.572926 0)scale(0.996264)"/>
       <use xlink:href="#CMSS17-6e" transform="translate(206.392471 0)scale(0.996264)"/>
       <use xlink:href="#CMSS17-6f" transform="translate(285.826527 0)scale(0.996264)"/>
       <use xlink:href="#CMSS17-6e" transform="translate(332.670151 0)scale(0.996264)"/>
       <use xlink:href="#CMSS17-41" transform="translate(412.104206 0)scale(0.996264)"/>
       <use xlink:href="#CMSS17-6c" transform="translate(474.322061 0)scale(0.996264)"/>
       <use xlink:href="#CMSS17-6c" transform="translate(496.502784 0)scale(0.996264)"/>
       <use xlink:href="#CMSS17-42" transform="translate(549.91262 0)scale(0.996264)"/>
       <use xlink:href="#CMSS17-6c" transform="translate(612.25066 0)scale(0.996264)"/>
       <use xlink:href="#CMSS17-6f" transform="translate(634.431383 0)scale(0.996264)"/>
       <use xlink:href="#CMSS17-63" transform="translate(683.877446 0)scale(0.996264)"/>
       <use xlink:href="#CMSS17-6b" transform="translate(725.516268 0)scale(0.996264)"/>
       <use xlink:href="#CMSS17-73" transform="translate(771.118757 0)scale(0.996264)"/>
      </g>
      <!-- No Redundancy Checks -->
      <g transform="translate(506.15818 345.989105)scale(0.11 -0.11)">
       <defs>
        <path id="CMSS17-4e" d="M 1466 4179 
L 1350 4416 
L 563 4416 
L 563 0 
L 1062 0 
L 1062 3925 
L 1069 3931 
C 1114 3817 1139 3759 1402 3193 
L 2771 236 
L 2886 0 
L 3674 0 
L 3674 4416 
L 3174 4416 
L 3174 490 
L 3168 484 
C 3123 598 3098 655 2835 1222 
L 1466 4179 
z
" transform="scale(0.015625)"/>
       </defs>
       <use xlink:href="#CMSS17-4e" transform="scale(0.996264)"/>
       <use xlink:href="#CMSS17-6f" transform="translate(66.061519 0)scale(0.996264)"/>
       <use xlink:href="#CMSS17-52" transform="translate(144.134255 0)scale(0.996264)"/>
       <use xlink:href="#CMSS17-65" transform="translate(204.55041 0)scale(0.996264)"/>
       <use xlink:href="#CMSS17-64" transform="translate(246.189232 0)scale(0.996264)"/>
       <use xlink:href="#CMSS17-75" transform="translate(294.394176 0)scale(0.996264)"/>
       <use xlink:href="#CMSS17-6e" transform="translate(342.599119 0)scale(0.996264)"/>
       <use xlink:href="#CMSS17-64" transform="translate(390.804062 0)scale(0.996264)"/>
       <use xlink:href="#CMSS17-61" transform="translate(439.009005 0)scale(0.996264)"/>
       <use xlink:href="#CMSS17-6e" transform="translate(483.930926 0)scale(0.996264)"/>
       <use xlink:href="#CMSS17-63" transform="translate(532.135869 0)scale(0.996264)"/>
       <use xlink:href="#CMSS17-79" transform="translate(573.774691 0)scale(0.996264)"/>
       <use xlink:href="#CMSS17-43" transform="translate(648.003945 0)scale(0.996264)"/>
       <use xlink:href="#CMSS17-68" transform="translate(707.859717 0)scale(0.996264)"/>
       <use xlink:href="#CMSS17-65" transform="translate(756.06466 0)scale(0.996264)"/>
       <use xlink:href="#CMSS17-63" transform="translate(797.703482 0)scale(0.996264)"/>
       <use xlink:href="#CMSS17-6b" transform="translate(839.342304 0)scale(0.996264)"/>
       <use xlink:href="#CMSS17-73" transform="translate(884.944793 0)scale(0.996264)"/>
      </g>
     </g>
    </g>
    <g id="xtick_5">
     <g id="line2d_5">
      <g>
       <use xlink:href="#mdbea3f5f03" x="703.508887" y="298.502825" style="stroke: #000000; stroke-width: 0.8"/>
      </g>
     </g>
     <g id="text_5">
      <!-- \textbf{Concurrent Analysis} -->
      <g transform="translate(653.507109 316.613172)scale(0.11 -0.11)">
       <use xlink:href="#CMSSBX10-43" transform="scale(0.996264)"/>
       <use xlink:href="#CMSSBX10-6f" transform="translate(70.015609 0)scale(0.996264)"/>
       <use xlink:href="#CMSSBX10-6e" transform="translate(124.810434 0)scale(0.996264)"/>
       <use xlink:href="#CMSSBX10-63" transform="translate(180.712222 0)scale(0.996264)"/>
       <use xlink:href="#CMSSBX10-75" transform="translate(229.418732 0)scale(0.996264)"/>
       <use xlink:href="#CMSSBX10-72" transform="translate(285.32052 0)scale(0.996264)"/>
       <use xlink:href="#CMSSBX10-72" transform="translate(322.403931 0)scale(0.996264)"/>
       <use xlink:href="#CMSSBX10-65" transform="translate(359.487341 0)scale(0.996264)"/>
       <use xlink:href="#CMSSBX10-6e" transform="translate(410.407794 0)scale(0.996264)"/>
       <use xlink:href="#CMSSBX10-74" transform="translate(466.309582 0)scale(0.996264)"/>
       <use xlink:href="#CMSSBX10-41" transform="translate(543.105368 0)scale(0.996264)"/>
       <use xlink:href="#CMSSBX10-6e" transform="translate(616.165135 0)scale(0.996264)"/>
       <use xlink:href="#CMSSBX10-61" transform="translate(672.066923 0)scale(0.996264)"/>
       <use xlink:href="#CMSSBX10-6c" transform="translate(724.371117 0)scale(0.996264)"/>
       <use xlink:href="#CMSSBX10-79" transform="translate(749.831336 0)scale(0.996264)"/>
       <use xlink:href="#CMSSBX10-73" transform="translate(799.64481 0)scale(0.996264)"/>
       <use xlink:href="#CMSSBX10-69" transform="translate(841.654176 0)scale(0.996264)"/>
       <use xlink:href="#CMSSBX10-73" transform="translate(867.114395 0)scale(0.996264)"/>
      </g>
      <!-- Spawn on Program Entry -->
      <g transform="translate(645.335239 331.301139)scale(0.11 -0.11)">
       <defs>
        <path id="CMSS17-50" d="M 2106 1856 
C 2874 1856 3501 2447 3501 3139 
C 3501 3818 2899 4416 2067 4416 
L 570 4416 
L 570 0 
L 1107 0 
L 1107 1856 
L 2106 1856 
z
M 1926 4057 
C 2669 4057 2995 3598 2995 3139 
C 2995 2711 2694 2227 1926 2227 
L 1094 2227 
L 1094 4057 
L 1926 4057 
z
" transform="scale(0.015625)"/>
        <path id="CMSS17-72" d="M 954 1369 
C 954 1974 1395 2379 1958 2392 
L 1958 2816 
C 1549 2809 1165 2604 934 2270 
L 934 2783 
L 480 2783 
L 480 0 
L 954 0 
L 954 1369 
z
" transform="scale(0.015625)"/>
        <path id="CMSS17-67" d="M 2848 2816 
C 2483 2809 2170 2739 1914 2617 
C 1702 2783 1485 2816 1338 2816 
C 781 2816 358 2356 358 1824 
C 358 1481 550 1222 563 1209 
C 448 1049 384 876 384 684 
C 384 460 474 300 544 211 
C 211 6 166 -308 166 -429 
C 166 -896 749 -1280 1498 -1280 
C 2253 -1280 2835 -896 2835 -423 
C 2835 460 1856 467 1587 467 
L 1069 467 
C 973 467 717 467 717 793 
C 717 921 774 1004 781 1011 
C 877 940 1075 832 1338 832 
C 1869 832 2310 1279 2310 1824 
C 2310 2128 2170 2349 2112 2425 
L 2131 2425 
C 2150 2425 2419 2444 2515 2444 
C 2720 2444 2739 2438 2918 2419 
L 2848 2816 
z
M 1338 1184 
C 1120 1184 813 1317 813 1824 
C 813 2375 1165 2463 1331 2463 
C 1549 2463 1856 2330 1856 1824 
C 1856 1272 1504 1184 1338 1184 
z
M 1581 0 
C 1734 0 2381 0 2381 -436 
C 2381 -711 1984 -928 1504 -928 
C 1018 -928 621 -717 621 -429 
C 621 -397 621 0 1062 0 
L 1581 0 
z
" transform="scale(0.015625)"/>
        <path id="CMSS17-6d" d="M 4288 1878 
C 4288 2309 4179 2816 3462 2816 
C 2982 2816 2694 2515 2566 2328 
C 2451 2668 2182 2816 1798 2816 
C 1363 2816 1088 2566 941 2386 
L 941 2783 
L 474 2783 
L 474 0 
L 960 0 
L 960 1556 
C 960 1936 1101 2425 1555 2425 
C 2138 2425 2138 2013 2138 1826 
L 2138 0 
L 2624 0 
L 2624 1556 
C 2624 1936 2765 2425 3219 2425 
C 3802 2425 3802 2013 3802 1826 
L 3802 0 
L 4288 0 
L 4288 1878 
z
" transform="scale(0.015625)"/>
        <path id="CMSS17-45" d="M 1958 435 
C 1446 435 1216 435 1101 428 
L 1101 2105 
L 3085 2105 
L 3085 2496 
L 1101 2496 
L 1101 3993 
L 1926 3993 
C 2003 3993 2080 3987 2157 3987 
L 3251 3987 
L 3251 4403 
L 563 4403 
L 563 0 
L 3334 0 
L 3334 441 
L 1958 435 
z
" transform="scale(0.015625)"/>
       </defs>
       <use xlink:href="#CMSS17-53" transform="scale(0.996264)"/>
       <use xlink:href="#CMSS17-70" transform="translate(52.048516 0)scale(0.996264)"/>
       <use xlink:href="#CMSS17-61" transform="translate(100.253459 0)scale(0.996264)"/>
       <use xlink:href="#CMSS17-77" transform="translate(142.572926 0)scale(0.996264)"/>
       <use xlink:href="#CMSS17-6e" transform="translate(206.392471 0)scale(0.996264)"/>
       <use xlink:href="#CMSS17-6f" transform="translate(285.826527 0)scale(0.996264)"/>
       <use xlink:href="#CMSS17-6e" transform="translate(332.670151 0)scale(0.996264)"/>
       <use xlink:href="#CMSS17-50" transform="translate(412.104206 0)scale(0.996264)"/>
       <use xlink:href="#CMSS17-72" transform="translate(471.839793 0)scale(0.996264)"/>
       <use xlink:href="#CMSS17-6f" transform="translate(503.749565 0)scale(0.996264)"/>
       <use xlink:href="#CMSS17-67" transform="translate(550.593189 0)scale(0.996264)"/>
       <use xlink:href="#CMSS17-72" transform="translate(597.436812 0)scale(0.996264)"/>
       <use xlink:href="#CMSS17-61" transform="translate(629.346585 0)scale(0.996264)"/>
       <use xlink:href="#CMSS17-6d" transform="translate(674.268505 0)scale(0.996264)"/>
       <use xlink:href="#CMSS17-45" transform="translate(779.726873 0)scale(0.996264)"/>
       <use xlink:href="#CMSS17-6e" transform="translate(835.618886 0)scale(0.996264)"/>
       <use xlink:href="#CMSS17-74" transform="translate(883.823829 0)scale(0.996264)"/>
       <use xlink:href="#CMSS17-72" transform="translate(917.655396 0)scale(0.996264)"/>
       <use xlink:href="#CMSS17-79" transform="translate(949.565168 0)scale(0.996264)"/>
      </g>
      <!-- With Redundancy Checks -->
      <g transform="translate(644.855767 345.989105)scale(0.11 -0.11)">
       <use xlink:href="#CMSS17-57" transform="scale(0.996264)"/>
       <use xlink:href="#CMSS17-69" transform="translate(88.242166 0)scale(0.996264)"/>
       <use xlink:href="#CMSS17-74" transform="translate(110.422889 0)scale(0.996264)"/>
       <use xlink:href="#CMSS17-68" transform="translate(144.254456 0)scale(0.996264)"/>
       <use xlink:href="#CMSS17-52" transform="translate(223.688512 0)scale(0.996264)"/>
       <use xlink:href="#CMSS17-65" transform="translate(284.104667 0)scale(0.996264)"/>
       <use xlink:href="#CMSS17-64" transform="translate(325.743489 0)scale(0.996264)"/>
       <use xlink:href="#CMSS17-75" transform="translate(373.948432 0)scale(0.996264)"/>
       <use xlink:href="#CMSS17-6e" transform="translate(422.153375 0)scale(0.996264)"/>
       <use xlink:href="#CMSS17-64" transform="translate(470.358318 0)scale(0.996264)"/>
       <use xlink:href="#CMSS17-61" transform="translate(518.563261 0)scale(0.996264)"/>
       <use xlink:href="#CMSS17-6e" transform="translate(563.485182 0)scale(0.996264)"/>
       <use xlink:href="#CMSS17-63" transform="translate(611.690125 0)scale(0.996264)"/>
       <use xlink:href="#CMSS17-79" transform="translate(653.328947 0)scale(0.996264)"/>
       <use xlink:href="#CMSS17-43" transform="translate(727.558202 0)scale(0.996264)"/>
       <use xlink:href="#CMSS17-68" transform="translate(787.413973 0)scale(0.996264)"/>
       <use xlink:href="#CMSS17-65" transform="translate(835.618916 0)scale(0.996264)"/>
       <use xlink:href="#CMSS17-63" transform="translate(877.257738 0)scale(0.996264)"/>
       <use xlink:href="#CMSS17-6b" transform="translate(918.89656 0)scale(0.996264)"/>
       <use xlink:href="#CMSS17-73" transform="translate(964.49905 0)scale(0.996264)"/>
      </g>
     </g>
    </g>
    <g id="xtick_6">
     <g id="line2d_6">
      <g>
       <use xlink:href="#mdbea3f5f03" x="846.879229" y="298.502825" style="stroke: #000000; stroke-width: 0.8"/>
      </g>
     </g>
     <g id="text_6">
      <!-- \textbf{Concurrent Analysis} -->
      <g transform="translate(796.87745 316.613172)scale(0.11 -0.11)">
       <use xlink:href="#CMSSBX10-43" transform="scale(0.996264)"/>
       <use xlink:href="#CMSSBX10-6f" transform="translate(70.015609 0)scale(0.996264)"/>
       <use xlink:href="#CMSSBX10-6e" transform="translate(124.810434 0)scale(0.996264)"/>
       <use xlink:href="#CMSSBX10-63" transform="translate(180.712222 0)scale(0.996264)"/>
       <use xlink:href="#CMSSBX10-75" transform="translate(229.418732 0)scale(0.996264)"/>
       <use xlink:href="#CMSSBX10-72" transform="translate(285.32052 0)scale(0.996264)"/>
       <use xlink:href="#CMSSBX10-72" transform="translate(322.403931 0)scale(0.996264)"/>
       <use xlink:href="#CMSSBX10-65" transform="translate(359.487341 0)scale(0.996264)"/>
       <use xlink:href="#CMSSBX10-6e" transform="translate(410.407794 0)scale(0.996264)"/>
       <use xlink:href="#CMSSBX10-74" transform="translate(466.309582 0)scale(0.996264)"/>
       <use xlink:href="#CMSSBX10-41" transform="translate(543.105368 0)scale(0.996264)"/>
       <use xlink:href="#CMSSBX10-6e" transform="translate(616.165135 0)scale(0.996264)"/>
       <use xlink:href="#CMSSBX10-61" transform="translate(672.066923 0)scale(0.996264)"/>
       <use xlink:href="#CMSSBX10-6c" transform="translate(724.371117 0)scale(0.996264)"/>
       <use xlink:href="#CMSSBX10-79" transform="translate(749.831336 0)scale(0.996264)"/>
       <use xlink:href="#CMSSBX10-73" transform="translate(799.64481 0)scale(0.996264)"/>
       <use xlink:href="#CMSSBX10-69" transform="translate(841.654176 0)scale(0.996264)"/>
       <use xlink:href="#CMSSBX10-73" transform="translate(867.114395 0)scale(0.996264)"/>
      </g>
      <!-- Spawn on Program Entry -->
      <g transform="translate(788.70558 331.301139)scale(0.11 -0.11)">
       <use xlink:href="#CMSS17-53" transform="scale(0.996264)"/>
       <use xlink:href="#CMSS17-70" transform="translate(52.048516 0)scale(0.996264)"/>
       <use xlink:href="#CMSS17-61" transform="translate(100.253459 0)scale(0.996264)"/>
       <use xlink:href="#CMSS17-77" transform="translate(142.572926 0)scale(0.996264)"/>
       <use xlink:href="#CMSS17-6e" transform="translate(206.392471 0)scale(0.996264)"/>
       <use xlink:href="#CMSS17-6f" transform="translate(285.826527 0)scale(0.996264)"/>
       <use xlink:href="#CMSS17-6e" transform="translate(332.670151 0)scale(0.996264)"/>
       <use xlink:href="#CMSS17-50" transform="translate(412.104206 0)scale(0.996264)"/>
       <use xlink:href="#CMSS17-72" transform="translate(471.839793 0)scale(0.996264)"/>
       <use xlink:href="#CMSS17-6f" transform="translate(503.749565 0)scale(0.996264)"/>
       <use xlink:href="#CMSS17-67" transform="translate(550.593189 0)scale(0.996264)"/>
       <use xlink:href="#CMSS17-72" transform="translate(597.436812 0)scale(0.996264)"/>
       <use xlink:href="#CMSS17-61" transform="translate(629.346585 0)scale(0.996264)"/>
       <use xlink:href="#CMSS17-6d" transform="translate(674.268505 0)scale(0.996264)"/>
       <use xlink:href="#CMSS17-45" transform="translate(779.726873 0)scale(0.996264)"/>
       <use xlink:href="#CMSS17-6e" transform="translate(835.618886 0)scale(0.996264)"/>
       <use xlink:href="#CMSS17-74" transform="translate(883.823829 0)scale(0.996264)"/>
       <use xlink:href="#CMSS17-72" transform="translate(917.655396 0)scale(0.996264)"/>
       <use xlink:href="#CMSS17-79" transform="translate(949.565168 0)scale(0.996264)"/>
      </g>
      <!-- No Redundancy Checks -->
      <g transform="translate(792.898862 345.989105)scale(0.11 -0.11)">
       <use xlink:href="#CMSS17-4e" transform="scale(0.996264)"/>
       <use xlink:href="#CMSS17-6f" transform="translate(66.061519 0)scale(0.996264)"/>
       <use xlink:href="#CMSS17-52" transform="translate(144.134255 0)scale(0.996264)"/>
       <use xlink:href="#CMSS17-65" transform="translate(204.55041 0)scale(0.996264)"/>
       <use xlink:href="#CMSS17-64" transform="translate(246.189232 0)scale(0.996264)"/>
       <use xlink:href="#CMSS17-75" transform="translate(294.394176 0)scale(0.996264)"/>
       <use xlink:href="#CMSS17-6e" transform="translate(342.599119 0)scale(0.996264)"/>
       <use xlink:href="#CMSS17-64" transform="translate(390.804062 0)scale(0.996264)"/>
       <use xlink:href="#CMSS17-61" transform="translate(439.009005 0)scale(0.996264)"/>
       <use xlink:href="#CMSS17-6e" transform="translate(483.930926 0)scale(0.996264)"/>
       <use xlink:href="#CMSS17-63" transform="translate(532.135869 0)scale(0.996264)"/>
       <use xlink:href="#CMSS17-79" transform="translate(573.774691 0)scale(0.996264)"/>
       <use xlink:href="#CMSS17-43" transform="translate(648.003945 0)scale(0.996264)"/>
       <use xlink:href="#CMSS17-68" transform="translate(707.859717 0)scale(0.996264)"/>
       <use xlink:href="#CMSS17-65" transform="translate(756.06466 0)scale(0.996264)"/>
       <use xlink:href="#CMSS17-63" transform="translate(797.703482 0)scale(0.996264)"/>
       <use xlink:href="#CMSS17-6b" transform="translate(839.342304 0)scale(0.996264)"/>
       <use xlink:href="#CMSS17-73" transform="translate(884.944793 0)scale(0.996264)"/>
      </g>
     </g>
    </g>
   </g>
   <g id="matplotlib.axis_2">
    <g id="ytick_1">
     <g id="line2d_7">
      <defs>
       <path id="m4c0b1d957a" d="M 0 0 
L -3.5 0 
" style="stroke: #000000; stroke-width: 0.8"/>
      </defs>
      <g>
       <use xlink:href="#m4c0b1d957a" x="52.786751" y="298.502825" style="stroke: #000000; stroke-width: 0.8"/>
      </g>
     </g>
     <g id="text_7">
      <!-- $\mathdefault{0}$ -->
      <g transform="translate(40.307284 302.307999)scale(0.11 -0.11)">
       <defs>
        <path id="CMR17-30" d="M 2688 2038 
C 2688 2430 2682 3099 2413 3613 
C 2176 4063 1798 4224 1466 4224 
C 1158 4224 768 4082 525 3620 
C 269 3137 243 2539 243 2038 
C 243 1671 250 1112 448 623 
C 723 -39 1216 -128 1466 -128 
C 1760 -128 2208 -7 2470 604 
C 2662 1048 2688 1568 2688 2038 
z
M 1466 -26 
C 1056 -26 813 328 723 816 
C 653 1196 653 1749 653 2109 
C 653 2604 653 3015 736 3407 
C 858 3954 1216 4121 1466 4121 
C 1728 4121 2067 3947 2189 3420 
C 2272 3054 2278 2623 2278 2109 
C 2278 1691 2278 1176 2202 797 
C 2067 96 1690 -26 1466 -26 
z
" transform="scale(0.015625)"/>
       </defs>
       <use xlink:href="#CMR17-30" transform="scale(0.996264)"/>
      </g>
     </g>
    </g>
    <g id="ytick_2">
     <g id="line2d_8">
      <g>
       <use xlink:href="#m4c0b1d957a" x="52.786751" y="260.563589" style="stroke: #000000; stroke-width: 0.8"/>
      </g>
     </g>
     <g id="text_8">
      <!-- $\mathdefault{2000}$ -->
      <g transform="translate(23.868882 264.368762)scale(0.11 -0.11)">
       <defs>
        <path id="CMR17-32" d="M 2669 990 
L 2554 990 
C 2490 537 2438 460 2413 422 
C 2381 371 1920 371 1830 371 
L 602 371 
C 832 620 1280 1073 1824 1596 
C 2214 1966 2669 2400 2669 3033 
C 2669 3788 2067 4224 1395 4224 
C 691 4224 262 3603 262 3027 
C 262 2777 448 2745 525 2745 
C 589 2745 781 2783 781 3007 
C 781 3206 614 3264 525 3264 
C 486 3264 448 3257 422 3244 
C 544 3788 915 4057 1306 4057 
C 1862 4057 2227 3616 2227 3033 
C 2227 2477 1901 1998 1536 1583 
L 262 147 
L 262 0 
L 2515 0 
L 2669 990 
z
" transform="scale(0.015625)"/>
       </defs>
       <use xlink:href="#CMR17-32" transform="scale(0.996264)"/>
       <use xlink:href="#CMR17-30" transform="translate(45.690477 0)scale(0.996264)"/>
       <use xlink:href="#CMR17-30" transform="translate(91.380954 0)scale(0.996264)"/>
       <use xlink:href="#CMR17-30" transform="translate(137.071431 0)scale(0.996264)"/>
      </g>
     </g>
    </g>
    <g id="ytick_3">
     <g id="line2d_9">
      <g>
       <use xlink:href="#m4c0b1d957a" x="52.786751" y="222.624352" style="stroke: #000000; stroke-width: 0.8"/>
      </g>
     </g>
     <g id="text_9">
      <!-- $\mathdefault{4000}$ -->
      <g transform="translate(23.868882 226.429525)scale(0.11 -0.11)">
       <defs>
        <path id="CMR17-34" d="M 2150 4147 
C 2150 4281 2144 4288 2029 4288 
L 128 1254 
L 128 1088 
L 1779 1088 
L 1779 460 
C 1779 230 1766 166 1318 166 
L 1197 166 
L 1197 0 
C 1402 12 1747 12 1965 12 
C 2182 12 2528 12 2733 0 
L 2733 166 
L 2611 166 
C 2163 166 2150 230 2150 460 
L 2150 1088 
L 2803 1088 
L 2803 1254 
L 2150 1254 
L 2150 4147 
z
M 1798 3723 
L 1798 1254 
L 256 1254 
L 1798 3723 
z
" transform="scale(0.015625)"/>
       </defs>
       <use xlink:href="#CMR17-34" transform="scale(0.996264)"/>
       <use xlink:href="#CMR17-30" transform="translate(45.690477 0)scale(0.996264)"/>
       <use xlink:href="#CMR17-30" transform="translate(91.380954 0)scale(0.996264)"/>
       <use xlink:href="#CMR17-30" transform="translate(137.071431 0)scale(0.996264)"/>
      </g>
     </g>
    </g>
    <g id="ytick_4">
     <g id="line2d_10">
      <g>
       <use xlink:href="#m4c0b1d957a" x="52.786751" y="184.685115" style="stroke: #000000; stroke-width: 0.8"/>
      </g>
     </g>
     <g id="text_10">
      <!-- $\mathdefault{6000}$ -->
      <g transform="translate(23.868882 188.490289)scale(0.11 -0.11)">
       <defs>
        <path id="CMR17-36" d="M 678 2198 
C 678 3712 1395 4076 1811 4076 
C 1946 4076 2272 4049 2400 3782 
C 2298 3782 2106 3782 2106 3558 
C 2106 3385 2246 3328 2336 3328 
C 2394 3328 2566 3353 2566 3571 
C 2566 3987 2246 4224 1805 4224 
C 1043 4224 243 3411 243 2011 
C 243 257 966 -128 1478 -128 
C 2099 -128 2688 431 2688 1295 
C 2688 2101 2170 2688 1517 2688 
C 1126 2688 838 2430 678 1979 
L 678 2198 
z
M 1478 25 
C 691 25 691 1212 691 1450 
C 691 1914 909 2585 1504 2585 
C 1613 2585 1926 2585 2138 2140 
C 2253 1889 2253 1624 2253 1302 
C 2253 954 2253 696 2118 438 
C 1978 173 1773 25 1478 25 
z
" transform="scale(0.015625)"/>
       </defs>
       <use xlink:href="#CMR17-36" transform="scale(0.996264)"/>
       <use xlink:href="#CMR17-30" transform="translate(45.690477 0)scale(0.996264)"/>
       <use xlink:href="#CMR17-30" transform="translate(91.380954 0)scale(0.996264)"/>
       <use xlink:href="#CMR17-30" transform="translate(137.071431 0)scale(0.996264)"/>
      </g>
     </g>
    </g>
    <g id="ytick_5">
     <g id="line2d_11">
      <g>
       <use xlink:href="#m4c0b1d957a" x="52.786751" y="146.745879" style="stroke: #000000; stroke-width: 0.8"/>
      </g>
     </g>
     <g id="text_11">
      <!-- $\mathdefault{8000}$ -->
      <g transform="translate(23.868882 150.551052)scale(0.11 -0.11)">
       <defs>
        <path id="CMR17-38" d="M 1741 2289 
C 2144 2494 2554 2803 2554 3298 
C 2554 3884 1990 4224 1472 4224 
C 890 4224 378 3800 378 3215 
C 378 3054 416 2777 666 2533 
C 730 2469 998 2276 1171 2154 
C 883 2006 211 1652 211 945 
C 211 282 838 -128 1459 -128 
C 2144 -128 2720 366 2720 1022 
C 2720 1607 2330 1877 2074 2051 
L 1741 2289 
z
M 902 2855 
C 851 2887 595 3086 595 3388 
C 595 3781 998 4076 1459 4076 
C 1965 4076 2336 3716 2336 3298 
C 2336 2700 1670 2359 1638 2359 
C 1632 2359 1626 2359 1574 2398 
L 902 2855 
z
M 2080 1536 
C 2176 1466 2483 1253 2483 861 
C 2483 385 2010 25 1472 25 
C 890 25 448 443 448 951 
C 448 1459 838 1884 1280 2083 
L 2080 1536 
z
" transform="scale(0.015625)"/>
       </defs>
       <use xlink:href="#CMR17-38" transform="scale(0.996264)"/>
       <use xlink:href="#CMR17-30" transform="translate(45.690477 0)scale(0.996264)"/>
       <use xlink:href="#CMR17-30" transform="translate(91.380954 0)scale(0.996264)"/>
       <use xlink:href="#CMR17-30" transform="translate(137.071431 0)scale(0.996264)"/>
      </g>
     </g>
    </g>
    <g id="ytick_6">
     <g id="line2d_12">
      <g>
       <use xlink:href="#m4c0b1d957a" x="52.786751" y="108.806642" style="stroke: #000000; stroke-width: 0.8"/>
      </g>
     </g>
     <g id="text_12">
      <!-- $\mathdefault{10000}$ -->
      <g transform="translate(18.389415 112.611815)scale(0.11 -0.11)">
       <defs>
        <path id="CMR17-31" d="M 1702 4083 
C 1702 4217 1696 4224 1606 4224 
C 1357 3927 979 3833 621 3820 
C 602 3820 570 3820 563 3808 
C 557 3795 557 3782 557 3648 
C 755 3648 1088 3686 1344 3839 
L 1344 467 
C 1344 243 1331 166 781 166 
L 589 166 
L 589 0 
C 896 6 1216 12 1523 12 
C 1830 12 2150 6 2458 0 
L 2458 166 
L 2266 166 
C 1715 166 1702 236 1702 467 
L 1702 4083 
z
" transform="scale(0.015625)"/>
       </defs>
       <use xlink:href="#CMR17-31" transform="scale(0.996264)"/>
       <use xlink:href="#CMR17-30" transform="translate(45.690477 0)scale(0.996264)"/>
       <use xlink:href="#CMR17-30" transform="translate(91.380954 0)scale(0.996264)"/>
       <use xlink:href="#CMR17-30" transform="translate(137.071431 0)scale(0.996264)"/>
       <use xlink:href="#CMR17-30" transform="translate(182.761908 0)scale(0.996264)"/>
      </g>
     </g>
    </g>
    <g id="ytick_7">
     <g id="line2d_13">
      <g>
       <use xlink:href="#m4c0b1d957a" x="52.786751" y="70.867405" style="stroke: #000000; stroke-width: 0.8"/>
      </g>
     </g>
     <g id="text_13">
      <!-- $\mathdefault{12000}$ -->
      <g transform="translate(18.389415 74.672579)scale(0.11 -0.11)">
       <use xlink:href="#CMR17-31" transform="scale(0.996264)"/>
       <use xlink:href="#CMR17-32" transform="translate(45.690477 0)scale(0.996264)"/>
       <use xlink:href="#CMR17-30" transform="translate(91.380954 0)scale(0.996264)"/>
       <use xlink:href="#CMR17-30" transform="translate(137.071431 0)scale(0.996264)"/>
       <use xlink:href="#CMR17-30" transform="translate(182.761908 0)scale(0.996264)"/>
      </g>
     </g>
    </g>
    <g id="text_14">
     <!-- Number of Corresponding Results -->
     <g transform="translate(19.176662 53.570301)scale(0.11 -0.11)">
      <defs>
       <path id="CMSS17-62" d="M 954 4416 
L 480 4416 
L 480 -13 
L 966 -13 
L 966 275 
C 1210 38 1504 -64 1766 -64 
C 2381 -64 2880 559 2880 1382 
C 2880 2133 2496 2816 1926 2816 
C 1523 2816 1165 2649 954 2476 
L 954 4416 
z
M 966 2095 
C 1107 2276 1306 2425 1587 2425 
C 1965 2425 2394 2146 2394 1382 
C 2394 566 1882 326 1530 326 
C 1402 326 1267 358 1139 468 
C 966 624 966 721 966 812 
L 966 2095 
z
" transform="scale(0.015625)"/>
       <path id="CMSS17-66" d="M 1075 2380 
L 1722 2380 
L 1722 2752 
L 1062 2752 
L 1062 3563 
C 1062 4013 1408 4089 1606 4089 
C 1670 4089 1850 4089 2080 4007 
L 2080 4428 
C 1933 4460 1754 4480 1613 4480 
C 1018 4480 602 3994 602 3366 
L 602 2752 
L 160 2752 
L 160 2380 
L 602 2380 
L 602 0 
L 1075 0 
L 1075 2380 
z
" transform="scale(0.015625)"/>
      </defs>
      <use xlink:href="#CMSS17-4e" transform="scale(0.996264)"/>
      <use xlink:href="#CMSS17-75" transform="translate(66.061519 0)scale(0.996264)"/>
      <use xlink:href="#CMSS17-6d" transform="translate(114.266462 0)scale(0.996264)"/>
      <use xlink:href="#CMSS17-62" transform="translate(188.495717 0)scale(0.996264)"/>
      <use xlink:href="#CMSS17-65" transform="translate(239.303099 0)scale(0.996264)"/>
      <use xlink:href="#CMSS17-72" transform="translate(280.941921 0)scale(0.996264)"/>
      <use xlink:href="#CMSS17-6f" transform="translate(344.080806 0)scale(0.996264)"/>
      <use xlink:href="#CMSS17-66" transform="translate(390.92443 0)scale(0.996264)"/>
      <use xlink:href="#CMSS17-43" transform="translate(450.780201 0)scale(0.996264)"/>
      <use xlink:href="#CMSS17-6f" transform="translate(510.635973 0)scale(0.996264)"/>
      <use xlink:href="#CMSS17-72" transform="translate(554.877142 0)scale(0.996264)"/>
      <use xlink:href="#CMSS17-72" transform="translate(586.786915 0)scale(0.996264)"/>
      <use xlink:href="#CMSS17-65" transform="translate(618.696687 0)scale(0.996264)"/>
      <use xlink:href="#CMSS17-73" transform="translate(660.335509 0)scale(0.996264)"/>
      <use xlink:href="#CMSS17-70" transform="translate(696.249051 0)scale(0.996264)"/>
      <use xlink:href="#CMSS17-6f" transform="translate(747.056433 0)scale(0.996264)"/>
      <use xlink:href="#CMSS17-6e" transform="translate(793.900057 0)scale(0.996264)"/>
      <use xlink:href="#CMSS17-64" transform="translate(842.105 0)scale(0.996264)"/>
      <use xlink:href="#CMSS17-69" transform="translate(890.309943 0)scale(0.996264)"/>
      <use xlink:href="#CMSS17-6e" transform="translate(912.490666 0)scale(0.996264)"/>
      <use xlink:href="#CMSS17-67" transform="translate(960.695609 0)scale(0.996264)"/>
      <use xlink:href="#CMSS17-52" transform="translate(1038.768346 0)scale(0.996264)"/>
      <use xlink:href="#CMSS17-65" transform="translate(1099.1845 0)scale(0.996264)"/>
      <use xlink:href="#CMSS17-73" transform="translate(1140.823322 0)scale(0.996264)"/>
      <use xlink:href="#CMSS17-75" transform="translate(1176.736864 0)scale(0.996264)"/>
      <use xlink:href="#CMSS17-6c" transform="translate(1224.941808 0)scale(0.996264)"/>
      <use xlink:href="#CMSS17-74" transform="translate(1247.122531 0)scale(0.996264)"/>
      <use xlink:href="#CMSS17-73" transform="translate(1280.954097 0)scale(0.996264)"/>
     </g>
    </g>
   </g>
   <g id="patch_21">
    <path d="M 52.786751 298.502825 
L 52.786751 69.444684 
" style="fill: none; stroke: #000000; stroke-width: 0.8; stroke-linejoin: miter; stroke-linecap: square"/>
   </g>
   <g id="patch_22">
    <path d="M 924.12 298.502825 
L 924.12 69.444684 
" style="fill: none; stroke: #000000; stroke-width: 0.8; stroke-linejoin: miter; stroke-linecap: square"/>
   </g>
   <g id="patch_23">
    <path d="M 52.786751 298.502825 
L 924.12 298.502825 
" style="fill: none; stroke: #000000; stroke-width: 0.8; stroke-linejoin: miter; stroke-linecap: square"/>
   </g>
   <g id="patch_24">
    <path d="M 52.786751 69.444684 
L 924.12 69.444684 
" style="fill: none; stroke: #000000; stroke-width: 0.8; stroke-linejoin: miter; stroke-linecap: square"/>
   </g>
   <g id="legend_1">
    <g id="patch_25">
     <path d="M 850.056162 24.461419 
L 872.056162 24.461419 
L 872.056162 16.761419 
L 850.056162 16.761419 
z
" style="fill: #1b998b"/>
    </g>
    <g id="text_15">
     <!-- Correct -->
     <g transform="translate(880.856162 24.461419)scale(0.11 -0.11)">
      <use xlink:href="#CMSS17-43" transform="scale(0.996264)"/>
      <use xlink:href="#CMSS17-6f" transform="translate(59.855772 0)scale(0.996264)"/>
      <use xlink:href="#CMSS17-72" transform="translate(104.096941 0)scale(0.996264)"/>
      <use xlink:href="#CMSS17-72" transform="translate(136.006714 0)scale(0.996264)"/>
      <use xlink:href="#CMSS17-65" transform="translate(167.916486 0)scale(0.996264)"/>
      <use xlink:href="#CMSS17-63" transform="translate(209.555308 0)scale(0.996264)"/>
      <use xlink:href="#CMSS17-74" transform="translate(251.19413 0)scale(0.996264)"/>
     </g>
    </g>
    <g id="patch_26">
     <path d="M 850.056162 39.792313 
L 872.056162 39.792313 
L 872.056162 32.092313 
L 850.056162 32.092313 
z
" style="fill: #613dc1"/>
    </g>
    <g id="text_16">
     <!-- Error -->
     <g transform="translate(880.856162 39.792313)scale(0.11 -0.11)">
      <use xlink:href="#CMSS17-45" transform="scale(0.996264)"/>
      <use xlink:href="#CMSS17-72" transform="translate(55.892013 0)scale(0.996264)"/>
      <use xlink:href="#CMSS17-72" transform="translate(87.801786 0)scale(0.996264)"/>
      <use xlink:href="#CMSS17-6f" transform="translate(119.711558 0)scale(0.996264)"/>
      <use xlink:href="#CMSS17-72" transform="translate(163.952728 0)scale(0.996264)"/>
     </g>
    </g>
    <g id="patch_27">
     <path d="M 850.056162 55.123208 
L 872.056162 55.123208 
L 872.056162 47.423208 
L 850.056162 47.423208 
z
" style="fill: #ed217c"/>
    </g>
    <g id="text_17">
     <!-- Wrong -->
     <g transform="translate(880.856162 55.123208)scale(0.11 -0.11)">
      <use xlink:href="#CMSS17-57" transform="scale(0.996264)"/>
      <use xlink:href="#CMSS17-72" transform="translate(85.639712 0)scale(0.996264)"/>
      <use xlink:href="#CMSS17-6f" transform="translate(117.549485 0)scale(0.996264)"/>
      <use xlink:href="#CMSS17-6e" transform="translate(164.393108 0)scale(0.996264)"/>
      <use xlink:href="#CMSS17-67" transform="translate(212.598051 0)scale(0.996264)"/>
     </g>
    </g>
   </g>
  </g>
 </g>
 <defs>
  <clipPath id="p9c9e400a23">
   <rect x="52.786751" y="69.444684" width="871.333249" height="229.058141"/>
  </clipPath>
 </defs>
</svg>
